<svg width="98" height="50" viewBox="0 0 98 50" fill="none" xmlns="http://www.w3.org/2000/svg">
<g clip-path="url(#clip0_0_70)">
<mask id="mask0_0_70" style="mask-type:luminance" maskUnits="userSpaceOnUse" x="-288" y="-30" width="671" height="106">
<path d="M-287.498 -29.2496H382.588V75.9443H-287.498V-29.2496Z" fill="white"/>
</mask>
<g mask="url(#mask0_0_70)">
<path fill-rule="evenodd" clip-rule="evenodd" d="M35.7812 27.7051L32.5916 26.7873C30.5318 26.1404 29.1273 24.2114 29.1273 22.1009C29.1273 19.3435 31.3774 17.1555 34.1864 17.1555H40.4638V19.3435H36.0613C35.2157 19.3435 34.4706 19.9826 34.4706 20.9056C34.4706 21.4579 34.8458 22.1009 35.4985 22.285L38.5929 23.2935C40.7479 23.9352 41.8683 26.0522 41.8683 28.4415C41.8683 31.4724 39.3394 33.951 36.2503 33.951H29.5963V31.4724H35.3135C36.1578 31.4724 37.0919 30.6413 37.0919 29.5394C37.0919 28.7137 36.6242 27.9799 35.7812 27.7051ZM6.55479 27.7051L3.37188 26.7873C1.40451 26.1404 0 24.2114 0 22.1009C0 19.3435 2.24614 17.1555 5.05648 17.1555H11.3325V19.3435H6.93271C6.08706 19.3435 5.33523 19.9826 5.33523 20.9056C5.33523 21.4579 5.71717 22.1009 6.37117 22.285L9.46028 23.2935C11.5201 23.9352 12.6432 26.0522 12.6432 28.4415C12.6432 31.4724 10.2067 33.951 7.11765 33.951H0.467718V31.4724H6.18222C7.02385 31.4724 7.96062 30.6413 7.96062 29.5394C7.96062 28.7137 7.40043 27.9799 6.55479 27.7051ZM21.0715 34.502C17.2306 34.502 14.2366 31.8327 14.2366 28.5282V17.2449H19.3883V28.9911C19.3883 30.4572 20.6976 31.6512 22.3836 31.6512C23.9757 31.6512 25.3828 30.4572 25.3828 28.9911V17.2449H27.8153V28.5282C27.8153 31.8327 24.8186 34.502 21.0715 34.502Z" fill="#34495E"/>
<path fill-rule="evenodd" clip-rule="evenodd" d="M79.318 35.4543C79.318 35.4543 70.434 36.0552 62.8875 35.3794C63.0268 44.3932 64.1499 49.0085 64.3335 50H80.835C80.0417 45.2636 79.4239 37.6187 79.318 35.4543ZM51.3164 16.7535C52.4248 16.8429 62.1557 17.6713 62.8044 17.6713C62.8044 17.6318 78.2043 33.0362 78.2043 33.0362H98V16.7535H51.3164ZM64.2129 15.7975H80.835V-3.8147e-06H64.2129V15.7975ZM64.103 20.3458L61.9386 18.1815C59.0693 18.213 49.7953 17.2597 46.8094 16.7535V33.0362C61.7014 34.4786 69.5066 34.8468 78.2297 34.5733H78.3745L64.103 20.3458ZM79.2376 33.879H81.2679V46.5417C81.0133 45.2176 80.2588 37.5108 80.3485 35.048C80.106 34.785 79.2376 33.879 79.2376 33.879Z" fill="#34495E"/>
</g>
</g>
<defs>
<clipPath id="clip0_0_70">
<rect width="98" height="50" fill="white"/>
</clipPath>
</defs>
</svg>
